<svg xmlns="http://www.w3.org/2000/svg" width="532" height="416" viewBox="0 0 399 312"><defs><linearGradient id="e" x1="161.8" x2="161.8" y1="236.5" y2="141.5" href="#a"><stop offset="0" stop-color="#cd607a"/><stop offset="1" stop-color="#d0aac8"/></linearGradient><linearGradient id="d" x1="157.9" x2="157.9" y1="259.5" y2="116.9" href="#a"><stop offset="0" stop-color="#902432"/><stop offset="1" stop-color="#b18cb5"/></linearGradient><linearGradient id="b" x1="245.8" x2="318.5" y1="147.2" y2="54.3" href="#a"><stop offset="0" stop-color="#e0bdb0"/><stop offset="1" stop-color="#efd5d7"/></linearGradient><linearGradient id="c" x1="304.2" x2="336" y1="159.2" y2="118.5" href="#a"><stop offset="0" stop-color="#c8a7a6"/><stop offset="1" stop-color="#e0c3c1"/></linearGradient><linearGradient id="a" gradientUnits="userSpaceOnUse"/></defs><path fill="#fff" d="M203.1 13.6a13 13 0 0 0-12.2 7.3l-9.5 3.3-.6 6 12.1 7.7 23.2.6-6.2-23.8a29 29 0 0 0-7.5-1.6M89.1 18.2l-11.2 5.6-4.5 12.1 2.1 8.5 4 18.7L121.8 49l6.2-9.7-2.2-8.1-7.6-6.2c-3.5-.8-12.6-.8-21.9-5m-32 61.2-2.1 16.6 19.6-1-5.7-13.6M212 97.6l120.5-6-89.8 119.6c-2.9 1.3-24.5-13.5-51.1-33.3L159 153.3l21.4-35.2 18-21z"/><path fill="#9ca8b4" d="M182.4 27.5c-2.7 5.3 2 12.7 7.8 12.6l-2 19.5 12-13.4 10.3.6 8-7.6c-.8-3.5-3.4-7.3-7.1-9.5a9 9 0 0 1-1.1 5.1c-1.6 2.7-5.3 3.5-8 2.3-1.7-.6-2.6-2.2-4-3.1-3.5.9-7.6 1.6-10.8-.5a11 11 0 0 1-5-6m-58 7.5c-.7 3.8-3.3 7-6.3 9.3-3.3 2.3-7.6 1.7-11 0-1 2.3-1.8 5-4.2 6.2-2.4 1.6-5.5 1-8.1.1-1.2 2.8-3 5.8-6.3 6.3-2.4.1-5.2.6-7.2-1a8 8 0 0 1-2.7-8q1-2 2.5-3.7l-2-1.2c-2.1 2-4.3 4-5.2 6.9-1.4 4.2-2.2 11.8.6 15.2l16 3.2 8.1-3.7 3.6 1.8 5.2 5.3 4.9 3.7c1-.1 2.2-.4 3.8 0L112.7 57l9.2-4.7L128 43zM77.3 93.6c-2.8.2-4.6 3.3-7.6 3.2a8 8 0 0 1-5-2.3l-.3-.3-3 5.7 10 6L84 97.6l-.6-1-5-2.9q-.6-.2-1.2-.1"/><path fill="#68809a" d="m202 10-1.4.1a12 12 0 0 0-10.1 8.2c-1.2.5-2.6 0-3.9.3-3.6.7-7 3.4-8.3 6.9a12.8 12.8 0 0 0 9.8 17.7 217 217 0 0 0-2.3 14.7 56 56 0 0 0-.1 8l3.3-3.1c4-4.6 8-10.2 11.7-15.6a13 13 0 0 0 12.5.4c4-2 6.4-6.3 6.5-10.7a13 13 0 0 0-4.2-9.2c-1.3-.9-.4-2.4-.4-3.6.7-7.4-4.7-13.8-13-14m-.3 4.1q3.8 0 6.5 2.8c3.1 3 3.7 8 1.6 11.8l1.4 1c3.8 2 5.6 7.3 3.1 11a8 8 0 0 1-11.2 3c-1.2-.6-2.4-2.3-4-1.6-3.3 4.6-6.1 9.6-9.7 14 .4-5 2.2-9.9 2.9-15 .3-1.3-1.1-1.7-2.2-1.7-5.7.1-10.5-6.7-7.8-12 1.2-4.4 6.4-6 10.4-4.6.9-2.4 1.6-5 3.8-6.7a8 8 0 0 1 5.2-2M91 15.3A20 20 0 0 0 72.5 27c-2.5 5-2.1 11.1.6 16-4.5 5-5.8 13-2.6 19a18 18 0 0 0 17.7 9.2 17 17 0 0 0 10.2-5.1 173 173 0 0 0 12 11.3c1 .9 1.7-.6 2.3-1.1l-.3-.8a15 15 0 0 0-3.3-4.8l-9-9.5c-.8-.7-2-2.2-3-1-2 2.3-3.9 5-7 6a14 14 0 0 1-13.7-4A13 13 0 0 1 74.1 50c.9-2.9 3-5 5.2-7-2-1.3-3-3.7-3.4-6-1.5-7.3 3.9-15 11-16.5A16 16 0 0 1 99 22c2.5 1.5 4 4 5.7 6.4a12 12 0 0 1 11.8-2.5c4.1 1.4 6.8 5.2 8.2 9.1 2.1 6.4-1 14.3-7.3 17-2.3 1.1-5 .5-7.3 1.3-1.3 1-.5 2.6-.2 3.8l5.5 18.2.3 1.1c.7 2.5.7 5.3 2.6 7.2.7.8 2 1 2.6 0 0-1.7-1-3.2-1.4-4.8-.6-1.8-.6-3.8-1-5.5-.9-5.4-2.6-10.6-3.8-16 3.6-.3 7.1-2 9.7-4.5a20 20 0 0 0 1.8-25.5c-3-3.6-7.3-6.4-12-6.6-3-.4-5.8.7-8.5 1.5a19 19 0 0 0-11.2-6.7zM69.9 78.8a10 10 0 0 0-7.3 2.7A9 9 0 0 0 61.3 93c-1 1.7-2.1 3.5-2 5.6a9.7 9.7 0 0 0 11.7 8.2 11 11 0 0 0 7.6-5.7q5.3-.5 10.2 1c1.5.5 3-1.7 1.6-2.7q-5.2-5.2-11.1-9.7a9 9 0 0 0-2.1-7.8q-3-3-7.3-3.1m-.5 3.8c3.8-.2 8 3.3 6.9 7.2l-.6 2 3 2q2.4 1.5 4.5 3.7v.4c-2.4.7-5-.6-7.6-.5q-.5 2.1-2 3.8c-2.6 2.7-8 1.8-9.6-1.8-1.3-1.8.1-4.3.8-4.8l1.1-1.7c-1-1.2-2.1-2.5-2.1-4.2-.2-2.2 1.3-4.2 3.1-5.4a5 5 0 0 1 2.5-.7"/><path fill="#dcc7c2" d="M183.4 129.7a32 32 0 0 0-13.8 16.6 20 20 0 0 0-1.3 6l18.2-7.3 1.9-12.6zm9.5 2.6-10.7 16.1 5 4.7 14.7-17m-1.1 32.6q-2.4 3-5 5.3c-1 .9-2.2.3-3.3.3l-5.2 7.5-3.6 16.1 21.7-9.3 4.5-17.4zm86.4 2-30.2 25-7.2 15.6 21.6 3.7 27.8-24.5-2.2-20.4m-84.5 7.1-15 14.9 37 7.7-.4-21-22.2-2.9m40.6 13.5-6 1.9c-2.3 1.7-3.4 3.3-4.9 5.2a39 39 0 0 0-4 8.5c-1.1 3.6-3 7.7-2.7 12.1l16.5-11 3.5-7.6z"/><path fill="url(#b)" d="m226.2 103.4-3.7 23.4 4.6 3.2 23.4 29 13.7-2.9 30 16.1 3.6-4.3 43.3-60.9c-1.5-19-8-54-43-77.6z"/><path fill="#f274c6" d="m267.1 24.2-.4.1-1.1 1.8a119 119 0 0 1-10 17.3q-5.4 8-12.1 15.4a113 113 0 0 1-23.4 20.8c-.7.4-2 1.5-.8 2 2.2 0 4.2-1.4 6.2-2.2a70 70 0 0 0 25.1-20.2A102 102 0 0 0 267.8 25c.2-.4-.3-.8-.7-.8M239.3 35c-3.2 4.5-5.4 9.6-8.6 14a96 96 0 0 1-33.4 29.5c-2.5 1.3-5 2.3-7.4 3.8-2.4 1.4.5 1.3 1.6 1A90 90 0 0 0 225 65a80 80 0 0 0 19.7-24.7c1-1.8 1.3-4 0-5.4-.4-.5-1.7-1.3-2.4-1.3a4 4 0 0 0-3 1.4m97.2 137q-1.9.4-3.2 1.9c-3.9 5.2-7.6 10.4-12 15.1-5.8 6.6-12.9 11.8-19.5 17.4-2.6 2-1.2 2 0 1.5 4.5-1.7 8.5-4.4 12.6-6.8a86 86 0 0 0 22.5-20.5c1.1-1.5 2.4-2.9 3-4.7.5-2.8-1.4-4-3.4-4m-4.8 28.4c-1.4 0-2.6.9-3.7 1.7a157 157 0 0 1-18.6 12.2q-12 6.3-25.2 9.8c-6 1.7-12.1 2.3-18.2 3.3 0 .3 7.3 1.3 11 1.2a92 92 0 0 0 56.6-21.6c2-1.6 1.8-5.3-.6-6.4q-.7-.3-1.3-.2m-58 34.7c-1 0-5 7.6-6.3 10.4l-1.1 1.8c-1.9 4-4.5 7.8-6.8 11.6a128 128 0 0 1-29.2 32.4c-.8.8-1 2 0 1.6 3.6-1.4 8-4.3 11.2-6.5 18-12.2 30.5-37.7 30.8-39.1 1.2-3 3.5-12.2 1.3-12.2m7.5 19.7-1.3.3q-4.5 5.6-8 11.7c-1.8 2.9-3.1 6.1-5 9-.8 1.3-2 2.4-2 4 .7 0 1.7.2 2.3-.4 3.8-3.4 7.6-7 10.1-11.4a23 23 0 0 0 3.9-13.2"/><path fill="#fcecdc" d="M292 25.3c0 1.9-1 3.6-1.7 5.3-8.2 19-19 37.1-34.5 51a65 65 0 0 1-27 15.4l-8.4 1.7c1.8 1.4 4.2 3 5.8 4.7a73 73 0 0 0 22.9-10 95 95 0 0 0 29-28.2c3.7-5.8 7.7-11.6 11-17.5l2.1-3.7c1.8-3 7-14.6 7-14.6-3-2.8-6.2-3.8-6.3-4.1m-65.7 78.1q-9 .5-18 2c-6 1-11.8 3.4-16.2 7.6a14 14 0 0 0-3.5 4.5l.5.3c1.5.6 3 1.2 3.8 2.8 2.2 4-.1 9-1 13.4 1.6 1.3 5 1.7 7.5 1.6l23.8-9.2q3-4.7 4.8-9.8c1.3-4.3 1.2-9.4-1.7-13.2m-39.2 20q-1.3.2-2.3.6c.6 1 1.9 1.8 1.6 3a6 6 0 0 1-3 2.7 7 7 0 0 0 2.4 2.2c.9.5 1.3.5 2.2.9q1-4.2.6-8.6-.6-.8-1.5-.8m44 7-3.9-.4c-1.7 1-4.6 3.2-6.9 4.5q-6.4 4-12.5 8.5t-9.5 11.5a12 12 0 0 0-1 3.8c3.2-1.6 6.8-3.1 10.4-2.3s5 4.8 5.6 8q.5 6.8-.7 13.2c3.7 2.3 6.4 3.2 9.7 3.4q5.3.5 10.3-1l19.3-24c-1-10-6.7-20-16.4-23.7q-1.8-1-4.4-1.5m38 23.3q-2.6 0-5.3.6-2.8 1.3-5.1 3.3a8 8 0 0 1-2.5 3.6c-3.4 3.7-6 8-8.7 12.2-1.1 2.3-3 5.8-2.8 8.5 2.3-1.1 5.3-3.3 7.7-2.4 2.6.8 4.2 3.3 4.9 5.7q1.5 6 1 12c3.2 0 6.4.3 9.4-.6q6.4-1.7 11.5-5.6c6.4-5 11-11.9 15.1-18.8a27 27 0 0 0-19.8-18.3zm-62.4 4.5-11.4 4.4c-8 8.3-13 22.7-10.4 33 .8-2.7 1.4-5.8 2.2-8.4q1.5-5.4 4.4-10.2 1-1.2 1.1-2.7-.2-2.5 1.3-4.6c1.7-2.4 4.5-5 7.7-3.7l-.7 2.7q1 1.2 2.4 2.2a34 34 0 0 0 6.6 4.6l.6-7.5zm38.4 27.6q0 3 1.4 5.6a10 10 0 0 0 2.6 3.4c1 1 3.1 1.4 4 1.4l1.9-5.3-3.5-7.3m-16.2 20c-1 4.4-1.9 9.2-.8 13.6l.6-.3c0-4 1.6-8.3 2.7-12z"/><path fill="#d6a0ad" d="M144.4 37.2q-.7 0-1.3.5c-3.1 1.9-2.7 6-2.2 9a57 57 0 0 0 6.2 15.2c1-4.5 1.5-8.2 1.8-12 0-3.7.5-7.8-1.8-11q-1-1.4-2.7-1.7M95.6 81.3q-1.6-.1-2.6 1c-1.6 2.2-.1 4.5 1.9 5.4 3.7 2 9.1 3.7 12.2 5.5a40 40 0 0 0-8-10.6 5 5 0 0 0-3.5-1.3m-34.4 35.2q-2.1 0-4.3 1c-3 1.2-2 6 1.1 6.3 5.7.8 12.7-2.4 18-4.3l-1.7-.3c-4.2-1.2-8.7-3-13-2.7"/><path fill="#732432" d="m242.9 248.4-17.4 29-59.2 22.9-59-17.3L81 251.3"/><path fill="#da7fa1" d="m159.6 77.2 15.7-11-11.2-9m-25.8 13.3-8 7.2 12.1 8.6zm23 23.7-4.6 11 1.4 2.6c4.8 0 9.7 0 14.4.9-3.9-1.8-8.3-1.2-12.4-1.4-1.8.2-2.7-2-2.2-3.4a13 13 0 0 1 2.8-5.1 86 86 0 0 1 24.6 2.4q-.1 1-.9 1.8l-5.6 5.7h-6l6.2 1.2.7-.9c2.7-4.1 6.8-7 10.8-10a98 98 0 0 0-29.2-4.9m-32.6 3.4-31.4 15.9c-50.2 56-35 116-3.8 141.8l40-151.2z"/><path fill="#f25a83" d="m166 98.6-6.9.1a16 16 0 0 0-3 5.8c-.6 1.4-.3 4.2 1.5 4 4.2.2 9.8.2 15 .2.2.5.1 0 .2 0 2 0 5 2.3 7 2.4 1.9-2 5-6 6.9-7.9.6-.4 1.4-.6 1.6-1.3a85 85 0 0 0-22.3-3.3m-31.3 5.3c-4.5 0-9.5 2.7-12.9 4.2-4.5 2.3-9 4.6-13.2 7.7q-6.9 5.3-13 11.6a89 89 0 0 0-16 23.3c-4.8 9.8-7.4 20.5-8.8 31.3-.3 6.8-.5 13.6.4 20.3.7 8.2 3.6 15.9 6.2 23.6 2 6.7 6.2 12.5 10 18.4 1.5 2.4 3.5 4.6 4.6 7.3a95 95 0 0 0 82.4 29.8 96 96 0 0 0 63.8-38l1.7-2a114 114 0 0 0 11.6-23.9q-2.6-1.3-5.3-2c-1.5.8-2.7 2.2-4.1 3.2l-71.5-12.4-38.3-91.7c1.2-2.9 2.6-7.5 2.4-10.7"/><path fill="#c25978" d="m246.5 213.5-13.3 9.4-2.8 6.3c10 1 20.2-11.5 23.9-13.8z"/><path fill="url(#c)" d="m325.4 113 13.3-23 5.8 25.4c1 4.6 2.7 15.2 0 14L340 127c-8.6 16.6-21 33.5-25.4 37.8q-10.1 10.8-18.6 22.9.7-8-1.7-15.6c.6-1.8 1.8-3.7 2.6-5.5l6.4-12.6c2.2-4.3 17.8-34.7 22.1-41"/><path fill="#591a29" d="M163.4 54.6c-1.5 0-1.9 2-2.3 3.3l-3.2 13.8c-.4 2.5-1.3 5-.9 7.6.9.4 2 1 2.8.2 5.5-3.5 10.6-7.9 16-11.5 1.4-.8.9-2.4.2-3.4a21 21 0 0 0-12.2-10zm1.5 4.7q4.3 2.4 7 6.5-5.3 3.7-10.3 7.8 1.5-7.2 3.3-14.3m-26.2 8.5c-3.7 2-7 5-9.8 8-.7.9-1.9 2-1 3.2 1.5 1.8 3.7 2.8 5.5 4.3l10.4 7q1.6.7 2.7-1l-5.7-19.1a3 3 0 0 0-2.2-2.4m-.9 5.4q1.4 5.3 3.2 10.5l-8.5-6c1.7-1.6 3.3-3.4 5.3-4.6m29 14.9h-7.3c-1.2 0-2.4.8-2.7 2q-2.8 6.3-5.3 12.6c-.5 1.4-1.7 3.1-.6 4.6l9.8 15q-5.3 8.7-10.1 17.6l.3-3 2.4-12.5c.3-1.2-.4-2.2-1.3-2.9-4.1-3-8.7-5.2-13-7.8-1.7-.7-1.2-2.7-.8-4 .5-2.7 1.7-5.4 1.4-8-2-3-5.3-4.9-8-7.2-1.9-1.9-4.6-.6-6.7.1a100 100 0 0 0-64.3 99.9 112 112 0 0 0 17.4 60.7A101 101 0 0 0 178.7 300a99 99 0 0 0 35.4-13.5c15.8-10 28.7-24 37.2-40.7l.4-.8-12.4-3h-.2a96 96 0 0 1-64.7 39.5A95 95 0 0 1 92 251.7a94 94 0 0 1 36.7-151.9l4.8 4.2-2.5 9.7c-3.4 1.5-7 2.8-10.2 4.8a80 80 0 0 0 15.8 145.7 81 81 0 0 0 89.1-27.3c-46.3-33.6-77.3-64-49.8-121.5l3-5.5-6-1.2h-.4c-4.8-.9-9.6-.8-14.4-.9l-1.4-2.6 4.6-11a98 98 0 0 1 29.2 4.9 40 40 0 0 0-10.9 10c3-1.8 4.7-4.6 7.4-6.6 3.4-3 7.5-5 11.6-7.1a62 62 0 0 0-10.7-3.8q-10.5-2.8-21.3-3.6M246 215h-.3c-1.7.7-2.8 2.3-3.7 3.8l4.1-3.3a26 26 0 0 1 5.4 2l-3.4 8.5q-2.4 5.3-5.3 10.3 5.8 1.4 11.7 2.3a95 95 0 0 0 5.9-20c-3.3-.4-6.6-.8-9.7-2.1-1.6-.5-3-1.5-4.7-1.5m-16.5 5.5-18.8 6 18.4 5.6 2.5-4a19 19 0 0 0 2-4m6.5 27.4c-2.5 5.5-7 9.9-11 14.3a92 92 0 0 1-139.6-5.7c-1.3-1.8-3-3.5-3.8-5.6a114 114 0 0 0 51.5 31 103 103 0 0 0 96.6-27.3c2.2-2.2 4-4.7 6.3-6.7"/><path fill="url(#d)" d="M162.5 114c1 2.9 3.3 5.3 3.9 8.4q-1 3-3 5.8c-3.1 4.7-5.5 9.9-8.7 14.6-.6 1.1-1.8 2.5-1 3.8 2.4 4.5 5.3 8.7 7.8 13.1.5.9 1.1 1.9.7 3l-2.9 7.3 2.7 3.3 23.6-20.8-18-1-1.4-6.2 9.7-20.2v-9.7a91 91 0 0 0-13.6-1.5m-26.6 4.6q-1.6.2-3.1 1a78 78 0 0 0-24.5 16q-5.5 6-10 12.7a77 77 0 0 0-11.5 37.5c.2 1.3-.3 3 1.2 3.5q3.3 1.5 6.7 2.6c1 .6 1.9-.3 2.7-.8l8.4-5.5c1.2-.6 2.6-1.7 3.8-.7 3.6 2.2 6.7 5 10.1 7.4l13.2-7.4c2.6-1.8 5.7.7 8.6.3l14.6-17.3c.7-2.1 1.4-4.3 1.3-6.7-.8-1.4-2.3-2.3-3.4-3.5-3-3-5.7-6.1-9-8.9-.5-.6-1.8-1.2-1.5-2.3 1.3-7 3-14 4.2-21q-5.1-3.4-10.4-6.4-.6-.5-1.4-.5m0 70.2q-1 0-2 .7l-14.2 8.6q-5.2-3.9-10.2-8.2c-.5-.3-1-1.1-1.6-.6q-3 2.2-5.9 4.7c-4.1 3.5-8.6 6.5-12.6 10.2-.8.6-.3 1.6-.2 2.4a75.6 75.6 0 0 0 80.8 55.5l-5.5-12.1c-1-1.7.1-3.5.8-5q2.3-4.5 4.1-9.3-6.6-5-13.6-9.7c-.9-.6-.3-1.6-.2-2.4 1.5-5.5 3.8-10.7 4.7-16.2L144 190.4c-2.6-.8-5.6-1.4-8.2-1.7M87 194.5q0 3 .6 6.2 2.5-2 4.3-4.3zm110.9-2-33.5 15.6c-1.3 4-2 8.4-3 12.7-.2 1-.9 2.6.4 3.2q5.9 4.2 11.5 8.9 1.2.9.7 2.5c-1.6 4-4 7.8-5.8 12-.5 1 .3 1.8.7 2.6q3 4.5 5.4 8.9c.5.7.9 1.8 1.8 2.2q3.8-.8 7.5-2a74 74 0 0 0 31.5-19l4-4.6 4.9-6.4c1.8-2.7 3.3-5 5-7.9l.3-19.7"/><path fill="url(#e)" d="M127.2 141.9q-2.6 0-4.8 1.8a63 63 0 0 0-5.3 5.1c-1.9 2-3.2 4.7-2.6 7.4.4 2.8 2.7 4.8 4.6 6.7l22.2 22 4 4-1.3 1.4-23.2 23.1c-2.5 2.7-6.2 5.2-6.4 9.2-.2 3.8 2.7 6.7 5.2 9.1 2.3 2.3 5.1 4.6 8.6 4.3 3.3 0 5.5-2.8 7.8-5l24-23.8 1.7-1.7 2.7 2.6 22.7 22.5c2.5 2.5 5 5.6 8.6 5.4 5.4.2 8.7-4.8 11.9-8.3 1.3-1.7 2-4 1.5-6a16 16 0 0 0-4.7-7l-9-8.7-17.2-11a42 42 0 0 1 2.8-18l.6-4 .1-13.5-11.6 4.8-8.3 8.5-2.5-2.8c-1.4 3.9-3.5 7.5-4.8 11.4q.4 3 1.3 5.6l-3.2-4.5c1.3-4.8 2-9.7 3.3-14.5l.3-1-22.8-22.7a8 8 0 0 0-6.1-2.4"/><path fill="#aa6478" d="m189.2 199.4-9 2.3.4 1.4c.2 2 .5 4.2 1.8 5.9 1.3 1.6 3.7 1.5 5.5.8q3.8-1.6 7.5-3.7z"/><path fill="#b4798e" d="m180 154.3-9.9 10q3.3-.6 6.7-.8c1.5.1 2.3 1.6 2.6 3 .4 3-.3 5 1 9.2q.4 1 1.2 1.7l2.7-6.5.7-12.5z"/><path fill="#4d3a45" d="M285.6 24.7c1-3 5.7-2.4 6.3.6.2 1.9-.9 3.6-1.6 5.3-8.2 19-19 37.1-34.5 51a65 65 0 0 1-27 15.4l-8.4 1.7a54 54 0 0 0-22.5 4.3c-7 3.2-13 8.8-16 15.9q3.5-1.4 7.1-1.1c1.5.6 3 1.2 3.8 2.7 2.2 4 1.5 8.9.8 13.2-1.3 5.7-3.3 12.1-9 14.9l2 2.5c3-6 7-11.6 12.4-15.6a47 47 0 0 1 24.2-9.1c1.8 0 3.7-.1 5.5.8l-1.5 2.8a56 56 0 0 0-28.2 14.7c-4.8 5-8 11.4-8.4 18.4a51 51 0 0 1 6.6-4.8c3.2-1.7 6.8-3.1 10.4-2.3s5 4.8 5.6 8c.6 4.4.1 8.9-.6 13.2-.7 3.1-1.4 6.4-3.4 9q-2.4 2.5-5.6 4a29 29 0 0 0 27.9 4.3c-1-5-.2-10 1-14.8a43 43 0 0 1 19.4-24 26 26 0 0 1 9.6-3.6c1.3-.2 1.7 1.4 2.2 2.2q-2.9 1.3-5.1 3.3a60 60 0 0 0-14 13 32 32 0 0 0-6.7 15.8 27 27 0 0 1 7-5.8c2.3-1.1 5-2 7.5-1 2.5.7 4 3.2 4.8 5.6a37 37 0 0 1-1 21q-1.6 2.4-3.9 4c7.3 3 15.6 1.8 22.6-1.3a48 48 0 0 0 21.1-21.1c5.8-8 11.7-15.8 18.6-22.8a163 163 0 0 0 15.8-21.7c3.4-5.2 9-18 14.9-23.8.4 2 .8 2.8.8 6.5q0 1.5-1.1 5c-1.3 3.7-3.6 7-5.5 10.3a194 194 0 0 1-15 22.5c-6.2 8-13.8 14.8-19.4 23.2-5.3 7.8-10.3 16-17.8 22a39 39 0 0 1-26.3 9.9c-3.1 0-4.4 0-9.4-1.3l-5.1-2.1-4.3 3.4a16 16 0 0 1-8.6 5.3c-2 0-4-1-4.6-3l-1.2-5.2a41 41 0 0 1-.3-7.5l.5-5.7c-2.7.9-6 .7-8.9.5-3.5-.5-7-.8-10.4-2.2a28 28 0 0 1-10-5.9q-1.5-1-2.8 0c-3 2.5-5.9 5.2-9.2 7.1a7 7 0 0 1-5.8.4l-.4-.6c-1.7-2-2-4.6-2.4-7.1a43 43 0 0 1 2.8-18c.7-2.1 2.1-4 2.8-6 0-4.1-.3-8.3.7-12.4l-4.5-4.3-1.3-1.5c-2.9-.4-5 2.1-7.2 3.7-2 1.7-5.3 2.7-7.7 1a7 7 0 0 1-2-4.3c-.6-7.9 1.6-16 6-22.6 1.4-2.7 4-4.6 5.7-7 1-2.7 1.3-5.6 2.5-8.2a30 30 0 0 1 3-5.5l.7-.9a57 57 0 0 1 6.7-7.2 40 40 0 0 1 12-6.7c10-4 21.8-2 32-5.6A66 66 0 0 0 258.7 69a156 156 0 0 0 26.9-44.4M184.7 124a27 27 0 0 0-11.4 9.8 29 29 0 0 0-4.9 16.7l.7-.4.7-.4a49 49 0 0 1 11.1-5.8c1.7-.7 3.5-1.5 4.3-3.2a37 37 0 0 0 2.7-8q1.1-4.1.6-8.5c-.8-1.4-2.7-.6-3.8-.2m13.7 40.3a33 33 0 0 0-13.6 30.7v.5c4.4-2.3 7.4-6 11.8-8.3 2.8-1.9 6.6-2.6 8.6-5.5 1.6-3.6 2-7.5 2.5-11.3.1-2.9.4-6-1-8.7-3-.8-6 1-8.3 2.6m47.9 22a30 30 0 0 0-11 17.3 25 25 0 0 0-.3 13.2l.5-.5 6.3-5.4c2.6-2.4 5.7-4.2 8.6-6.2 1.8-1.4 2-3.9 2.2-6 .2-3 .5-6.2 0-9.3-.4-1.7-.6-3.8-2.2-4.8q-2.2.2-4 1.7"/><path fill="#d6a0ad" d="M193.1 214a7 7 0 0 1 3.3 1.3 94 94 0 0 0 13 7.8 166 166 0 0 0 19.8 9 175 175 0 0 0 13.6 4.2q5.8 1.4 11.8 2.3c5 1 10.4 1 15.6 1h4c8 0 15.9-1.6 23.7-3a174 174 0 0 0 16.8-6.2c1.6-.6 2.7-.8 4.6-1.2a100 100 0 0 1-25 13c-7 2.4-14.3 3.3-21.5 4l-6.2.2-6.2-.3a72 72 0 0 1-7.8-1l-.9-.1-11.7-2.8q-7.4-2.1-14.3-5.3-9.4-4.1-18-10-6.8-4.8-13-10.5a6 6 0 0 1-1.6-2.5"/></svg>