<?xml version="1.0" encoding="UTF-8"?>
<svg width="399pt" height="312pt" version="1.1" viewBox="0 0 399 312" xmlns="http://www.w3.org/2000/svg">
<defs>
<linearGradient id="g" x1="649.79" x2="649.79" y1="521.45" y2="367" gradientUnits="userSpaceOnUse">
<stop stop-color="#cd607a" offset="0"/>
<stop stop-color="#d0aac8" offset="1"/>
</linearGradient>
<linearGradient id="h" x1="643.34" x2="643.34" y1="558.85" y2="327.14" gradientUnits="userSpaceOnUse">
<stop stop-color="#902432" offset="0"/>
<stop stop-color="#b18cb5" offset="1"/>
</linearGradient>
<linearGradient id="e" x1="786.41" x2="904.6" y1="376.45" y2="225.17" gradientUnits="userSpaceOnUse">
<stop stop-color="#e0bdb0" offset="0"/>
<stop stop-color="#efd5d7" offset="1"/>
</linearGradient>
<linearGradient id="f" x1="881.32" x2="933.09" y1="395.86" y2="329.6" gradientUnits="userSpaceOnUse">
<stop stop-color="#c8a7a6" offset="0"/>
<stop stop-color="#e0c3c1" offset="1"/>
</linearGradient>
</defs>
<g transform="matrix(.61488 0 0 .61488 -237.71 -84.191)" fill="#fff" stroke-width="0">
<path d="m716.9 159.05c-8.1807-0.16352-16.127 4.5032-19.77 11.856l-15.464 5.3218c-0.86 2.62-2.1449 7.0183-1.0049 9.7383-2.9775 8.5688 15.328 17.169 19.708 12.649 13.098 6.1935 34.879 0.11426 34.879 0.11426-2.2126-22.575-1.5211-26.717-10.239-37.827-2.6282-1.2075-5.3825-1.7985-8.1094-1.853zm-185.34 7.4019c-7.6979 0.0379-13.394 4.5212-17.918 9.2563l-7.6421 19.507c-0.86 2.62 4.3517 10.863 5.4917 13.583-2.9775 8.5688 5.5165 29.1 9.8965 24.58 50.751-3.485 62.696-14.667 63.526-16.797 4.12-0.17 8.0639-12.339 10.015-15.763l-3.6606-13.198c-1.3193-3.9462-9.5206-8.519-12.311-9.999-5.7-1.35-20.51-1.4425-35.583-8.0728-4.4039-2.2137-8.3164-3.1139-11.815-3.0967zm-36.885 101.91c-5.6996 6.8911-7.4182 11.041-5.5005 21.341 5.1788 9.3188 23.297 7.605 32.646 3.3662-6.5897-7.9627-11.152-20.978-11.152-20.978-7.9827-3.9751-10.818-3.5456-15.993-3.7295z"/>
<path d="m731.75 295.48 195.86-9.6795-146.01 194.5c-4.6744 2.1194-39.884-22.075-83.132-54.279l-53.352-39.728 34.874-57.344 29.406-34.019z"/>
</g>
<g transform="matrix(.61488 0 0 .61488 -237.71 -84.191)">
<path d="m683.28 181.63c-4.51 8.58 3.3502 19.729 12.7 19.589 1.66-0.13 4.03 0.57002 3.46 2.77-1.16 8.21-3.9799 16.141-4.6699 24.441 5.87-7.2 10.37-15.44 15.93-22.86 2.38-1.26 4.3406 1.559 6.3706 2.439 6 4.03 14.819 1.6608 18.249-4.6392 4.02-6.08 1.1107-14.71-5.0493-18.13 0.09 2.85-0.0399 5.8806-1.6699 8.3306-2.65 4.27-8.6404 5.5994-13.11 3.6694-2.7-0.91-4.1002-3.6101-6.4102-5.0801-5.7 1.5-12.299 2.6605-17.569-0.72949-3.99-1.99-6.631-5.7498-8.231-9.7998zm-93.999 12.23c-1.16 6.21-5.471 11.27-10.251 15.13-5.41 3.69-12.469 2.7786-18.069 0.0586-1.51 3.73-2.8212 8.121-6.6812 10.081-4 2.51-8.9695 1.5399-13.189 0.16992-1.93 4.51-4.9995 9.3202-10.25 10.16-3.88 0.2-8.46 1.0589-11.71-1.6611-4.12-2.84-5.7609-8.3686-4.4209-13.099 0.83-2.31 2.6006-4.1004 4.1206-5.9604-1.06-0.68-2.19-1.2407-3.23-1.9307-3.46 3.2-7.1003 6.5704-8.5503 11.21-2.08 6.75-0.82027 14.68 3.9697 20.02 5.46 6.1 14.54 8.24 22.34 6.23 5.04-1.45 8.0007-5.9106 11.221-9.6606 1.66-1.9 3.7099 0.61011 5.1299 1.6201 5.02 5.01 9.8091 10.261 14.559 15.541 2.11 2.34 4.2506 4.77 5.3306 7.79 1.48-0.2 2.9695-0.28998 4.4795-0.22998-3.09-9.82-5.8001-19.751-8.8901-29.571-0.45-1.98-1.7701-4.6599 0.39991-6.1099 3.76-1.37 8.1205-0.34 11.791-2.25 10.28-4.29 15.32-17.179 11.9-27.539zm-76.96 95.282c-4.5056 0.33469-7.552 5.2863-12.321 5.2075-3.03-0.24-6.1099-1.4002-8.1899-3.7002l-0.479-0.4497c-0.86 2.62-1.931 5.5197-0.79102 8.2397 2.46 5.85 11.33 7.3501 15.71 2.8301 1.72-1.61 2.3194-3.9799 3.1494-6.1099 4.12-0.17 8.4204 2.0006 12.36 0.83056l0.0395-0.6709c-2.38-2.09-4.6587-4.5302-7.4487-6.0102-0.7125-0.16875-1.3866-0.2148-2.0303-0.16699z" fill="#9ca8b4"/>
<path d="m715.25 153.2c-0.77962 0.0121-1.5621 0.0742-2.3452 0.19043-7.45 0.87-14.3 6.0105-16.5 13.291-1.9 0.83-4.2398 0.0302-6.2798 0.47021-5.99 1.24-11.3 5.529-13.63 11.209-3.04 6.9-1.4103 15.23 2.9897 21.18 3.06 4.29 8.1098 6.4506 13.09 7.6406-1.32 7.97-2.9287 15.9-3.8687 23.93-0.36626 4.9339-0.36402 8.7134-0.1009 13.005 2.9938-2.6058 3.4772-3.1309 5.3876-5.1131 6.5846-7.4026 13.032-16.541 19.012-25.291 6.22 3.37 14.04 4.1996 20.36 0.61963 6.51-3.17 10.301-10.27 10.601-17.35-0.24-5.67-2.6697-11.2-6.9697-14.96-2.09-1.45-0.65129-3.9798-0.57129-5.9898 1.4344-11.841-9.48-23.013-21.174-22.831zm-0.51416 6.9302c3.9398-0.026 7.942 1.5315 10.709 4.3608 5.01 4.9 5.899 13.2 2.439 19.23 0.6 0.38 1.8006 1.139 2.3906 1.519 6.16 3.42 9.0693 12.05 5.0493 18.13-3.43 6.3-12.249 8.6692-18.249 4.6392-2.03-0.88-3.9906-3.699-6.3706-2.439-5.56 7.42-10.06 15.66-15.93 22.86 0.69-8.3 3.5099-16.231 4.6699-24.441 0.57-2.2-1.8-2.9-3.46-2.77-9.35 0.14-17.21-11.009-12.7-19.589 1.88-7.18 10.401-9.6805 16.871-7.5205 1.44-3.91 2.6399-8.2399 6.1099-10.9 2.38-2.0825 5.4069-3.0604 8.4712-3.0806zm-180.01 1.3682c-12.572-0.21027-25.071 7.5781-30.129 19.172-4.01 8.16-3.3897 18.12 1.0503 25.98-7.35 8.28-9.4912 21.05-4.2012 30.94 5.32 10.23 17.351 16.19 28.701 14.9 6.32-0.63 12.25-3.7405 16.66-8.2705 6.4 6.3 12.71 12.759 19.66 18.439 1.57 1.38 2.6404-0.97959 3.6504-1.8296l-0.50976-1.27c-1.08-3.02-3.2206-5.45-5.3306-7.79-4.75-5.28-9.5391-10.531-14.559-15.541-1.42-1.01-3.4699-3.5201-5.1299-1.6201-3.22 3.75-6.1807 8.2106-11.221 9.6606-7.8 2.01-16.88-0.12998-22.34-6.23-4.79-5.34-6.0497-13.27-3.9697-20.02 1.45-4.64 5.0903-8.0104 8.5503-11.21-3.26-2.25-4.8096-6.1389-5.5796-9.8789-2.4-11.84 6.349-24.281 17.959-26.911 6.47-1.77 13.61-0.7401 19.38 2.6499 4.14 2.4 6.6406 6.5999 9.3706 10.38 5.06-4.8 12.67-6.3195 19.22-3.9595 6.62 2.26 10.97 8.45 13.33 14.77 3.42 10.36-1.6204 23.249-11.9 27.539-3.67 1.91-8.0305 0.88-11.791 2.25-2.17 1.45-0.84991 4.1299-0.39991 6.1099 3.09 9.82 5.8001 19.751 8.8901 29.571 0.13 0.47 0.40027 1.4196 0.53027 1.8896 1.12 3.97 1.1796 8.6309 4.3096 11.691 1.05 1.24 3.1801 1.64 4.1001 0-0.06-2.76-1.4794-5.2313-2.1694-7.8413-1.0499-2.9198-0.61015-6.1192-1.6699-9.019-1.45-8.74-4.2299-17.19-6.1099-25.84 5.85-0.67 11.47-3.2599 15.64-7.4399 11.17-10.51 11.999-29.36 3.0293-41.49-4.86-5.86-11.91-10.32-19.66-10.73-4.74-0.68-9.3107 1.1199-13.701 2.4199-4.62-5.6-11.07-9.7208-18.29-10.881-1.7775-0.36875-3.5741-0.56176-5.3701-0.5918zm-34.415 103.55c-4.3438-0.1275-8.7142 1.3161-11.824 4.4561-4.97 4.65-5.9504 12.669-2.4404 18.479-1.6 2.79-3.4098 5.7706-3.0498 9.1406 0.71 8.89 10.33 15.66 18.97 13.39 5.35-0.9 9.6609-4.7005 12.381-9.2505 5.61-0.59 11.169 0.0308 16.589 1.5308 2.4 0.9 4.7009-2.7401 2.4609-4.3301-5.7-5.63-11.771-10.911-18.081-15.851 0.95-4.44-0.19985-9.2591-3.3398-12.599-3.005-3.14-7.3223-4.8383-11.666-4.9658zm-0.96533 5.9766c6.1608-0.3257 12.863 5.4017 11.181 11.829-0.26 1.06-0.55941 2.1109-0.89941 3.1509 1.55 1.14 3.11 2.2491 4.73 3.3091 2.79 1.48 5.0687 3.9202 7.4487 6.0102l-0.0395 0.6709c-3.94 1.17-8.2404-1.0006-12.36-0.83056-0.83 2.13-1.4294 4.4999-3.1494 6.1099-4.38 4.52-13.25 3.0199-15.71-2.8301-1.0737-2.8526-0.16842-4.7414 0.69158-7.3614l0.57844-0.42866c0.44-0.69 1.3298-2.08 1.7798-2.77-1.52-2.05-3.4699-4.1604-3.3999-6.8804-0.37-3.65 2.1001-6.9002 5.0801-8.7202 1.2544-0.78563 2.6476-1.1831 4.0693-1.2583z" fill="#68809a"/>
<path d="m860.25 208.44c-1.37 1.91-2.6194 3.8895-3.6694 5.9795-5.16 9.94-11.68 19.061-17.66 28.491-2.67 4.25-5.981 8.0298-9.041 11.99-10.66 13.34-23.749 24.71-38.159 33.85-11.64 7.33-24.571 12.41-37.931 15.62l0.61084 0.73096c4.68 6.07 4.9596 14.369 2.8096 21.479-1.84 5.6-4.7404 10.761-7.6904 15.831l8.9707 1.4604c-0.84 1.48-1.68 2.9487-2.48 4.4487 4.64 0.08 9.1204 1.4808 13.46 3.0308 15.73 6.05 24.979 22.47 26.729 38.64 5.01-2.4 10.13-5.1692 15.75-5.6792 2.11-0.28 2.6396 2.1691 3.5596 3.5391 5.71-1.14 11.571-1.1601 17.361-0.64014 15.03 3.39 27.86 14.911 32.29 29.751l0.16992-0.39111c2.5647-3.1289 4.3407-3.7786 5.8007-6.5286l70.359-99.031c-2.5-30.95-13.001-87.789-70.116-126.35-0.44 1.47-9.1826 20.35-11.124 23.782z" fill="url(#e)" stroke-width="0"/>
<path d="m684.87 347.79c-10.79 5.55-17.861 16.16-22.471 27.06-0.57 1.59-2.4514 7.8667-2.0361 9.7925l2.3174-4.2832c5.61-3.95 11.749-7.1092 18.189-9.4892 2.69-1.01 5.5604-2.4101 6.8804-5.1401 2.08-4.04 4.1769-9.0236 5.2969-13.414zm16.521 6.5288c-2.02 9.31-5.2805 19.731-14.5 24.261 0.99 1.38 1.9396 2.8006 3.0396 4.1206 5-9.71 11.5-18.88 20.35-25.46-2.6725-0.25875-5.7449-1.4071-8.8887-2.9209zm11.789 57c-2.81 2.83-5.1598 6.1114-8.2398 8.6514-1.44 1.4-3.4992 0.48895-5.2192 0.41895-0.14 1.63-1.0105 3.0306-1.8105 4.4106-3.14 5.16-5.4102 10.81-7.1602 16.57-0.75396 2.3463-2.0567 7.5179-3.6102 14.068 7.08-3.74 12.01-10.398 19.18-14.068 4.62-3.04 10.76-4.2207 14.06-8.9707 2.54-5.78 3.3205-12.159 4.0005-18.379-1.94 0.58-3.8394 1.8593-5.9194 1.5293-0.68-0.82-0.88977-1.8903-1.2598-2.8403-1.4-0.32-2.751-0.78013-4.021-1.3901zm151.98 5.6411c-6.6699 11.27-14.14 22.509-24.63 30.589-5.4 4.44-12 7.1008-18.65 9.0308-4.93 1.55-10.16 0.92965-15.23 1.1396-0.43 4.96-0.9897 10.081-3.4497 14.511-1.42 2.75-3.9009 4.6789-6.2109 6.6489 11.8 4.83 25.3 2.8602 36.64-2.2998 15.16-6.81 26.37-20.09 34.4-34.27 0.42904-8.6408 0.15138-17.116-2.8696-25.349zm-132.89 8.1299c-1 5.1-2.1602 10.46-5.4902 14.61-2.38 3-5.8487 4.7591-9.1187 6.5991 12.51 10.27 30.339 12.371 45.369 6.9009-1.58-8.03 0.66028-17.055 2.5503-24.895-5.4694 0.285-11.88 2.9447-17.53 2.3247-5.48-1.4507-9.0351-2.8388-15.781-5.54zm65.041 19.869c0.03 1.36 0.0606 2.7111 0.0806 4.0811-1.54 1.33-3.0806 2.67-4.6406 3.98-0.14-0.4-0.41982-1.2099-0.56982-1.6099-1.54-1.12-3.0508-2.2709-4.5308-3.4409-3.6938 2.8106-5.5853 5.4137-7.9453 8.5737-2.8281 4.2794-4.8845 8.9268-6.5845 13.717-1.74 5.98-4.8985 12.581-4.41 19.819 3.87-2.39 7.8773-7.2922 11.397-10.152 4.22-3.87 9.0126-6.7969 13.663-10.087 3.06-2.24 3.2212-6.32 3.6812-9.75 0.33-5.02 0.76938-10.14-0.14062-15.13z" fill="#dcc7c2"/>
</g>
<g transform="matrix(.61488 0 0 .61488 -237.71 -84.191)">
<path d="m820.98 176.22c-0.23203-2e-3 -0.44998 0.0683-0.60498 0.23584-0.93 0.76-1.2898 1.9607-1.8398 2.9707-4.57 9.79-9.9701 19.2-16.1 28.08-6.25 8.62-12.31 17.47-19.83 25.04-11.47 12.55-23.551 24.861-38.111 33.831-1.16 0.61-3.2598 2.3604-1.2598 3.3604 3.63-0.15 6.7595-2.35 10.02-3.75 15.85-7.69 30.22-18.741 40.92-32.811 13.35-16.19 21.6-35.82 27.99-55.61 0.3375-0.675-0.48896-1.3392-1.1851-1.3462zm-45.213 17.647c-5.19 7.27-8.6817 15.65-14.012 22.84-14.33 19.62-32.53 36.85-54.3 47.93-4.01 2.07-8.2501 3.7094-12.06 6.1494-3.9012 2.2431 0.80834 2.032 2.7202 1.6201 20.13-5.59 38.6-16.299 54.51-29.729 13.33-10.93 23.95-24.931 31.96-40.131 1.48-3.01 2.1902-6.5701-0.0292-8.9153-0.64984-0.77662-2.6966-2.0989-3.9198-1.9944-2.064 0.17635-3.2929 0.57099-4.8688 2.2308zm158.13 222.58c-1.99 0.5-3.9597 1.4596-5.2397 3.0996-6.24 8.42-12.33 17.009-19.6 24.599-9.32 10.72-20.781 19.261-31.581 28.371-4.2925 3.3053-1.958 3.2965 0.10108 2.4199 7.19-2.88 13.699-7.1401 20.329-11.08 13.78-9.18 26.96-19.781 36.71-33.311 1.75-2.43 3.83-4.7394 4.73-7.6494 0.88179-4.6573-2.1707-6.5397-5.4507-6.4497zm-7.8852 46.04c-2.153 0.0924-4.207 1.4745-5.8945 2.7495-9.47 7.5-19.81 13.78-30.23 19.84-12.97 6.95-26.849 12.02-40.979 16.05-9.71 2.76-19.8 3.6694-29.73 5.3394 0.01 0.51 11.86 2.0428 18.015 1.9497 33.5-1 66.525-13.309 92.055-35.159 3.3-2.67 2.9194-8.5799-1.0606-10.38-0.73-0.3075-1.4576-0.42043-2.1753-0.38965zm-94.381 56.454c-1.6186-0.0334-8.0155 12.41-10.191 16.844-0.82018 1.4429-1.2777 2.109-1.7783 3.0527-2.9941 6.6069-7.2256 12.562-11.014 18.738-12.52 20.27-28.909 38.02-47.509 52.85-1.3072 1.1778-1.4791 3.0598-0.0791 2.5898 6.03-2.4 13.088-7.0592 18.398-10.699 29.292-19.784 49.474-61.301 50.045-63.542 1.8728-4.7643 5.694-19.76 2.1284-19.834zm12.138 32.046c-0.54 0.15-1.6104 0.42862-2.1504 0.57862-4.71 6.03-9.15 12.291-13.04 18.891-2.93 4.78-5.0406 10.021-8.1606 14.681-1.27 2.08-3.0898 3.9891-3.2798 6.5391 1.29-0.1 2.8399 0.37076 3.8599-0.71924 6.2-5.43 12.32-11.24 16.45-18.46 3.9-6.44 6.8308-13.85 6.3208-21.51z" fill="#f274c6"/>
</g>
<g transform="matrix(.61488 0 0 .61488 -237.71 -84.191)">
<path d="m861.36 178.01c0.26 3.14-1.5004 5.8909-2.6104 8.6909-13.38 30.74-31.031 60.38-56.161 82.97-12.61 11.18-27.18 20.86-43.73 24.92-4.55 1.2-9.2093 1.9396-13.819 2.8696 2.97 2.22 6.6669 4.912 9.2069 7.672 13.36-3.21 25.834-9.0519 37.474-16.382 14.41-9.14 27.499-20.51 38.159-33.85 3.06-3.96 6.371-7.7398 9.041-11.99 5.98-9.43 12.433-18.749 17.991-28.358 1.4477-2.6203 2.0347-3.6062 3.3384-6.1128 2.7979-4.9894 11.181-23.755 11.181-23.755-4.6472-4.5343-9.9008-6.1753-10.071-6.6753zm-106.96 127.09c-9.81 0.38-19.57 1.5689-29.26 3.1289-9.7 1.65-19.21 5.6203-26.35 12.53-2.17 2.18-4.4911 4.3808-5.6411 7.3008l0.84082 0.36914c2.38 0.96 4.9592 2.0708 6.1392 4.5308 3.62 6.49-0.20751 14.828-1.4575 21.828 2.4875 2.0762 7.9974 2.7559 12.076 2.6396l38.771-15.018c2.95-5.07 5.8504-10.231 7.6904-15.831 2.15-7.11 1.8704-15.409-2.8096-21.479zm-63.671 32.505c-1.2638 0.0167-2.6935 0.60287-3.7397 0.97412 0.92 1.59 3.0504 2.9598 2.6704 5.0098-1.01 1.94-3.06 3.0112-4.79 4.2012 1.09 1.59 2.1436 2.6384 3.7707 3.6615 1.4194 0.78948 2.126 0.87643 3.5388 1.4273 1.2-4.52 1.4904-9.2787 0.94043-13.909-0.525-1.0456-1.4077-1.3782-2.3906-1.3652zm71.608 11.327c-1.4145-0.24661-3.8421-0.54896-6.3182-0.62364-2.8064 1.781-7.5797 5.1912-11.27 7.4112-7 4.22-13.741 8.8709-20.331 13.711-6.6 4.84-11.939 11.339-15.489 18.709-0.99 1.93-1.3398 4.0797-1.5498 6.2197 5.13-2.67 11.04-5.0298 16.91-3.7398 5.84 1.38 8.1988 7.7998 9.0688 13.09 0.85999 7.11 0.14015 14.351-1.0898 21.381 6.0165 3.8282 10.301 5.15 15.781 5.54 5.65 0.62 11.17-0.39909 16.639-1.481 4.93-16.45 16.75-30.54 31.51-39.16-1.75-16.17-10.999-32.59-26.729-38.64-2.1752-1.0082-4.2542-1.9988-7.1328-2.418zm61.823 37.976c-2.9025 0.0825-5.7964 0.3719-8.6514 0.9419-3.07 1.34-5.7097 3.4301-8.4097 5.3701-0.54 2.43-2.3195 4.1897-3.9595 5.9297-5.61 5.92-9.9199 12.901-14.13 19.841-1.9 3.64-5.01 9.3851-4.56 13.705 3.67-1.79 8.5193-5.3652 12.549-3.7852 4.14 1.3 6.7198 5.249 7.8398 9.249 1.78 6.34 2.1905 13.01 1.8105 19.56 5.07-0.21 10.3 0.41035 15.23-1.1396 6.65-1.93 13.25-4.5908 18.65-9.0308 10.49-8.08 17.96-19.319 24.63-30.589-4.43-14.84-17.26-26.361-32.29-29.751-2.895-0.26-5.8075-0.38426-8.71-0.30176zm-104.08 12.705c-3.9183 0.0788-7.6884 2.4754-10.89 4.5879-16.01 10.64-27.918 33.558-21.969 50.909 1.2784-4.4528 2.1896-9.5688 3.5296-13.739 1.75-5.76 4.0202-11.41 7.1602-16.57 0.8-1.38 1.6705-2.7806 1.8105-4.4106-0.17-2.66 0.34983-5.3798 2.0698-7.4898 2.83-3.82 7.38-8.0405 12.52-6.0205-0.28 1.49-0.54086 3.02-1.1309 4.44 1.0048 1.0409 2.389 2.4954 3.8553 3.5114 0.37 0.95 9.0641 6.9732 10.721 7.5659l-3.3765-8.3761c0.2-4.69 0.71969-9.761-1.5703-14.061-0.915-0.26062-1.8262-0.36535-2.7305-0.34717zm73.841 37.507c-2.5-0.09-7.0047 0.40658-8.8447 1.9966 0.17214 2.9081 0.26853 4.1477 0.94483 5.9282 0.25211 0.90209 0.80189 2.1166 1.3052 3.1362 1.2996 2.4215 3.0277 4.6877 4.1865 5.5591 1.7852 1.5782 5.1754 2.196 6.4424 2.2148l0.5625-6.9141c-0.02-1.37-1.177-2.7211-1.207-4.0811-0.6-2.71-0.81965-6.1998-3.3896-7.8398zm-24.771 31.011c-1.76 7.12-3.0447 14.817-1.2847 21.957l0.89355-0.47607c-0.09-6.3 2.6208-13.371 4.3608-19.351-1.34-0.72-2.6497-1.4199-3.9697-2.1299z" fill="#fcecdc"/>
</g>
<g transform="matrix(.61488 0 0 .61488 -237.71 -84.191)">
<path d="m621.49 197.42c-0.75174-0.0404-1.5016 0.18545-2.1797 0.8042-5.09 3.08-4.3091 9.7505-3.5391 14.791 2.17 7.98 5.4316 17.497 10.011 24.617 1.7119-7.3156 2.4501-13.453 3.0478-19.568-0.04-6.01 0.7009-12.709-3.0791-17.849-0.94188-1.3269-2.6074-2.7061-4.2612-2.7949zm-79.374 71.736c-1.6085 0.0256-3.3142 0.24789-4.3154 1.5879-2.485 3.6656-0.12962 7.3499 3.1304 8.8799 6.02 3.26 14.812 5.9253 19.819 8.8872-3.2-6.05-7.9195-12.637-13.02-17.247-1.4062-1.3838-3.5466-2.1409-5.6148-2.1079zm-55.917 57.151c-2.3734 0.11547-4.7299 0.59418-7.0474 1.5967-5.01 2.04-3.2704 9.77 1.8296 10.27 9.21 1.4 20.675-3.9142 29.205-6.8642l-2.7949-0.56543c-6.8025-1.86-14.072-4.7834-21.192-4.437z" fill="#d6a0ad"/>
<path d="m654.78 233.3c-1.89 7.77-3.7589 15.54-5.3789 23.37 5.52-4.39 11-8.8802 16.9-12.76-3.17-4.2-6.871-8.0699-11.521-10.61zm-44.19 22.591c-3.35 1.85-5.8595 4.8289-8.6895 7.3389 4.38 3.56 9.3195 6.3611 13.77 9.8511-1.73-5.73-3.5101-11.43-5.0801-17.19zm38.31 34.1c-2.58 5.97-4.6501 12.14-7.3901 18.05 0.72 1.4 1.3814 2.8395 2.1314 4.2495 7.85 0.04 15.759-0.0601 23.509 1.3799-6.35-2.93-13.469-1.8202-20.219-2.2002-2.94 0.31-4.4312-3.1801-3.5112-5.6001 1.06-2.93 2.2403-6.059 4.5103-8.269 13.48-0.99 26.921 1.0795 40.061 3.9595-0.35 1.05-0.5307 2.2097-1.4707 2.9297-3.15 2.98-6.1502 6.1007-9.1802 9.2007-3.24-0.1-6.4687 0.10885-9.6987 0.0688 3.35 0.55 6.6993 1.1014 10.009 1.9014 0.35-0.49 0.72035-0.97115 1.1104-1.4312 4.49-6.74 11.099-11.54 17.619-16.14-15.3-5.03-31.36-7.8691-47.48-8.0991zm-53 9.23c-16.79 6.04-32.58 14.929-46.25 26.439-23.71 20.05-41.41 47.341-49.26 77.461-5.81 22.1-6.9112 45.499-2.2412 67.919 5.06 28.07 18.941 54.131 38.061 75.141-1.85-4.41-5.1211-7.9598-7.6011-11.99-6.15-9.51-12.82-18.93-16.14-29.9-4.28-12.51-9.0204-25.059-10.17-38.339-1.34-10.96-1.0589-22.051-0.58887-33.051 2.27-17.51 6.4998-34.989 14.3-50.919 7.06-13.61 15.089-27.06 26.159-37.83 6.66-6.69 13.39-13.39 21.07-18.91 6.65-4.96 14.091-8.6907 21.431-12.491 5.46-2.53 10.879-5.5001 16.919-6.3501 0.37 5.14-1.269 10.131-3.249 14.801-5.19 2.48-11.24 3.9994-15.22 8.3994 5.22-3.16 10.92-5.3595 16.5-7.7695 1.25-5.3 2.4991-10.59 4.0591-15.81-2.62-2.23-5.1998-4.5098-7.7798-6.7998z" fill="#da7fa1"/>
</g>
<path d="m166.02 98.603c-2.4917-0.05955-4.8363-0.01343-6.8796 0.13872-1.3958 1.3589-2.4674 3.917-3.1192 5.7186-0.56569 1.488-0.22521 4.2105 1.5826 4.0199 4.1505 0.23365 9.7962 0.18532 14.911 0.19995 0.23513 0.56116 0.22907 0.0914 0.29183 0.0568 2e-3 -1e-3 7e-3 -2e-3 0.01-2e-3 1.9861 0.0245 5.009 2.2596 7.0012 2.3211 1.8631-1.9061 4.9184-6.0155 6.8553-7.8479 0.57799-0.44272 1.3808-0.63698 1.5961-1.2826-5.9732-2.0199-14.774-3.1439-22.249-3.3227zm-31.351 5.3214c-4.4476-0.10914-9.5121 2.6344-12.869 4.1901-4.5132 2.3366-9.0884 4.6305-13.177 7.6804-4.7223 3.3942-8.8607 7.5137-12.956 11.627-6.8068 6.6223-11.744 14.892-16.085 23.261-4.7961 9.7951-7.3969 20.543-8.7927 31.31-0.289 6.7637-0.46186 13.584 0.36209 20.323 0.70712 8.1657 3.6219 15.882 6.2536 23.574 2.0414 6.7453 6.1425 12.538 9.924 18.385 1.5249 2.478 3.5362 4.6607 4.6738 7.3723 5.2634 5.8107 11.345 10.883 17.985 15.058 18.748 12.494 42.119 17.752 64.433 14.789 25.201-3.4694 48.768-17.489 63.719-38.093 0.42416-0.45208 1.5208-1.655 1.7609-2.0158 1.3451-2.0855 6.1245-9.9033 8.3802-15.533 1.2421-2.7055 2.2263-5.5097 3.2101-8.3136-1.7278-0.8178-3.4617-1.6478-5.3187-2.0906-1.5188 0.89774-2.7185 2.2323-4.1081 3.3083-2.2812 2.5456-5.054 4.7717-8.4973 5.4358-0.57799 1.3527-1.205 2.687-1.9798 3.9352-0.68545 1.0896-4.7134 6.8913-6.5013 9.5754-6.9177 8.3452-15.274 15.567-24.845 20.696-19.215 10.539-42.735 12.673-63.549 5.8105-18.963-6.0812-35.27-19.578-45.366-36.678-6.7453-11.953-10.564-25.604-10.632-39.347-0.16602-20.562 8.0308-41.05 22.401-55.77 5.1896-5.4971 11.296-10.035 17.752-13.939 3.772-1.7272 7.6546-2.5189 11.416-3.8604 1.2175-2.8715 2.6333-7.53 2.4058-10.691z" fill="#f25a83" stroke-width=".61488"/>
<path d="m246.45 213.54-13.214 9.3648-2.8745 6.342c9.9533 0.88779 20.234-11.575 23.897-13.834z" fill="#c25978" stroke-width="0"/>
<path d="m163.44 54.556c-1.5521 0.06241-1.9054 2.0988-2.3608 3.2921-1.1806 4.5993-2.0778 9.2605-3.1354 13.884-0.4673 2.4841-1.3161 4.9864-0.89801 7.5443 0.8547 0.37508 1.8751 0.96562 2.7544 0.2585 5.5524-3.5786 10.558-7.9199 16.061-11.572 1.3036-0.7194 0.84241-2.3244 0.17834-3.3389-2.8654-4.5071-6.9113-8.7625-12.273-10.054-0.11453-0.01418-0.22348-0.01862-0.32695-0.01439zm1.4636 4.7062c2.8592 1.5618 5.1349 3.9413 7.0841 6.5238-3.6278 2.3858-6.9973 5.1467-10.391 7.8461 0.99611-4.8145 2.1453-9.5923 3.3074-14.37zm-26.255 8.5594c-3.7016 2.0476-6.8809 4.9071-9.734 7.9938-0.67022 0.84854-1.8694 2.0652-0.96555 3.1597 1.488 1.7955 3.6463 2.8599 5.4664 4.2865 3.4434 2.3181 6.8254 4.7467 10.33 6.9787 1.0269 0.67022 2.1399 0.04887 2.6994-0.89801-1.8631-6.4009-3.7078-12.801-5.6754-19.172-0.25826-1.1252-0.98978-2.0232-2.1212-2.3491zm-0.91692 5.3313c0.96537 3.5417 2.0599 7.0465 3.1236 10.57-2.7362-2.1459-5.7735-3.8683-8.4667-6.0573 1.7401-1.5434 3.2831-3.375 5.343-4.5126zm28.887 14.85c-2.3931-0.11279-4.7919-0.10504-7.1931 0.04866-1.2728-0.0063-2.3984 0.78645-2.7796 1.9978-1.8815 4.1197-3.4619 8.3692-5.2881 12.514-0.47962 1.445-1.672 3.1353-0.58366 4.5864 3.265 5.0298 6.7271 9.9368 9.8015 15.09-3.5848 5.7123-6.7276 11.676-10.103 17.512-0.23981-0.97767 0.10451-1.9553 0.28282-2.9084 0.93463-4.1689 1.7467-8.362 2.4292-12.574 0.35049-1.1621-0.40575-2.2138-1.3096-2.8472-4.1197-2.9637-8.6949-5.2019-13.036-7.8028-1.6048-0.73172-1.1003-2.7422-0.73138-4.0703 0.53495-2.644 1.6664-5.3191 1.4204-8.0307-1.9799-2.9883-5.313-4.7777-7.9632-7.1327-1.9553-1.8446-4.6484-0.55971-6.8067 0.13511-26.932 9.8689-48.717 32.349-58.414 59.275-4.7408 12.949-6.4814 26.859-5.8726 40.601 0.19061 21.269 5.5953 42.827 17.413 60.671 13.171 20.162 33.487 35.859 56.785 42.365 14.216 4.1443 29.349 4.852 43.958 2.5769 12.531-2.2136 24.675-6.7519 35.46-13.534 15.747-9.9119 28.74-24.14 37.213-40.705l0.41163-0.77551c-3.9107-0.88543-8.4539-1.9183-12.315-2.976-0.0845-8e-3 -0.11259-0.015-0.12249-0.0217l-0.00123-0.00123-6.3e-4 -6.1e-4 -6.1e-4 -6.3e-4 -6.1e-4 -6.1e-4c-1e-3 -2e-3 -2e-3 -5e-3 -2e-3 -8e-3v-6.2e-4l-6.2e-4 -6.1e-4v-6.1e-4l-6.2e-4 -6.2e-4c-8e-3 -6e-3 -0.0345-0.0146-0.12069-0.0234-14.892 21.312-39.003 35.996-64.729 39.538-22.314 2.9637-45.685-2.2943-64.433-14.789-6.6408-4.1751-12.722-9.2474-17.985-15.058-11.757-12.919-20.292-28.943-23.403-46.203-2.8715-13.786-2.1944-28.173 1.3781-41.762 4.8268-18.52 15.71-35.301 30.289-47.63 8.4055-7.0773 18.114-12.543 28.438-16.257 1.5864 1.4081 3.1727 2.8099 4.7837 4.1811-0.95921 3.2097-1.7272 6.4625-2.4958 9.7214-3.4311 1.4819-6.9359 2.8343-10.146 4.7774-6.4563 3.9045-12.562 8.4423-17.752 13.939-14.37 14.72-22.567 35.208-22.401 55.77 0.06763 13.743 3.8867 27.393 10.632 39.347 10.096 17.1 26.403 30.597 45.366 36.678 20.814 6.8621 44.334 4.7286 63.549-5.8105 9.8689-5.288 18.446-12.802 25.486-21.478-6.2411-2.8469-12.378-5.9954-17.948-10.017-0.0369 0.19676-0.12253 0.60306-0.15942 0.79983 3.2281 1.9615 6.3141 4.1688 9.6898 5.8843 0.70711 0.46116 2.5405 0.41416 1.4862 1.5717-1.0883 1.734-2.4146 3.3292-3.755 4.8602-4.8146 5.4233-11.061 9.254-17.179 13.017-4.421 2.7178-9.3467 4.4514-14.278 5.9825-2.4841 0.74401-4.9187 1.7463-7.5074 2.023-0.91003-0.36279-1.2606-1.3773-1.7771-2.1275-1.6233-3.056-3.5054-5.958-5.3808-8.8603-0.42427-0.8178-1.2537-1.74-0.71877-2.6931 1.7524-4.0951 4.1498-7.8892 5.7916-12.033 0.44271-0.89774 0.0678-1.8997-0.73768-2.4346-3.8061-2.9945-7.471-6.1736-11.498-8.8729-1.279-0.67022-0.51601-2.195-0.40532-3.2588 0.95921-4.2427 1.6969-8.5476 3.0435-12.692-0.88544-0.90388-1.8136-1.7586-2.7544-2.5886-0.5165 0.56569-1.0329 1.1437-1.5555 1.7032-0.87314 5.6016-3.1918 10.834-4.6675 16.282-0.14757 0.76246-0.71935 1.8389 0.21527 2.3554 4.4641 3.3511 9.2418 6.2836 13.626 9.7331-1.365 3.1052-2.6135 6.2596-4.1261 9.2971-0.68253 1.5188-1.8015 3.2775-0.81155 4.9377 1.9 4.0275 3.7382 8.0925 5.5583 12.157-16.159 2.0414-32.742-2.1648-46.75-10.269-8.6084-5.4786-16.466-12.328-22.498-20.598-4.8145-7.7045-9.5984-15.674-11.603-24.639-0.10453-0.7686-0.6093-1.7834 0.19005-2.349 4.0213-3.6217 8.4607-6.7386 12.623-10.194 1.9553-1.5311 3.7821-3.2409 5.842-4.6306 0.59643-0.54109 1.1493 0.27094 1.6474 0.54764 3.345 2.7731 6.5427 5.737 10.158 8.1658 4.7039-2.9084 9.5063-5.6452 14.198-8.572 0.73786-0.41813 1.5493-0.88553 2.4409-0.71337 2.5825 0.24596 5.1222 0.83043 7.6002 1.5744l0.22067 0.0613c0.35048-0.37509 1.0645-1.1309 1.415-1.506-1.3343-1.2974-2.7243-2.5274-4.0955-3.7695-2.9084 0.51036-5.8908-2.0778-8.5594-0.2639-4.4026 2.4411-8.7189 5.0479-13.189 7.366-3.4372-2.3489-6.5297-5.1836-10.096-7.348-1.2236-0.97766-2.6322 0.0311-3.7452 0.65212-2.8715 1.7893-5.6626 3.7014-8.4604 5.5952-0.84239 0.48575-1.7526 1.2971-2.7733 0.76831-2.2566-0.78707-4.4889-1.6534-6.6779-2.6004-1.4757-0.46731-1.0205-2.2816-1.125-3.456 0.36893-13.232 4.4821-26.292 11.406-37.551 2.933-4.544 6.4939-8.6515 10.103-12.667 6.9359-6.9851 15.464-12.23 24.466-16.104 1.4204-0.49191 3.0745-1.5067 4.5071-0.5044 3.5663 1.9984 6.9355 4.3287 10.379 6.5238-1.2667 6.9974-2.8717 13.94-4.1568 20.937-0.25824 1.0576 0.90431 1.6662 1.5069 2.3364 3.222 2.7116 6.0136 5.8781 8.9404 8.8972 1.1068 1.199 2.6438 2.0415 3.4677 3.4803 0.0247 2.355-0.71342 4.6114-1.3898 6.8373-1.2544 4.8268-2.0475 9.7645-3.3326 14.585 1.1437 1.4511 2.2017 2.964 3.2101 4.5134-0.46732-1.8569-1.1382-3.6774-1.3042-5.5835 1.2974-3.9476 3.4067-7.5755 4.8701-11.462 0.83625-2.5272 2.054-4.9005 2.921-7.4092 0.40582-1.0268-0.27648-2.0102-0.70076-2.8895-2.5518-4.3964-5.4605-8.5841-7.8524-13.067-0.86084-1.3528 0.37487-2.6932 1.0205-3.8307 3.222-4.7039 5.5399-9.9427 8.7558-14.653 1.1375-1.8324 2.405-3.6646 2.9399-5.7798-0.57184-3.099-2.9396-5.4846-3.9541-8.436 4.5255 0.0184 9.0077 0.74362 13.466 1.4384 0.8178-1.9307 1.8572-3.7626 3.0624-5.4781-2.0353-0.49191-4.0947-0.83093-6.1545-1.1691-0.0738-0.0123-0.22796-0.0426-0.30174-0.055-4.7654-0.88544-9.6286-0.82388-14.455-0.84848-0.46116-0.86699-0.86781-1.7521-1.3105-2.613 1.6848-3.634 2.9577-7.4277 4.5441-11.099 9.9119 0.14142 19.787 1.8871 29.195 4.98-4.009 2.8285-8.0729 5.7797-10.834 9.924 2.8592-1.6848 4.6788-4.5804 7.3228-6.5419 3.4249-3.0437 7.551-5.0607 11.609-7.1021-3.4249-1.6479-7.0894-2.7055-10.705-3.8307-6.9544-1.7893-14.078-3.2086-21.258-3.547zm-79.608 106.45c1.6786 0.54109 3.3333 1.1497 4.9566 1.8383-1.2298 1.6233-2.7739 2.958-4.2865 4.3108-0.44272-2.023-0.65783-4.0831-0.67012-6.1491zm159.02 20.524c-0.10987-3e-4 -0.22001 3e-3 -0.33146 0.0126-1.6848 0.65793-2.7614 2.263-3.6407 3.7695 1.3896-1.0761 2.5894-2.4106 4.1081-3.3083 1.857 0.44271 3.5909 1.2728 5.3187 2.0905-0.98382 2.8039-1.9681 5.6081-3.2101 8.3136-1.5987 3.5786-3.5144 6.9807-5.4718 10.41 3.8676 1.0084 7.8206 1.6352 11.75 2.3608 2.4595-6.5055 4.8824-13.134 5.86-20.052-3.3019-0.37508-6.6531-0.73765-9.7214-2.0842-1.5334-0.52458-3.013-1.5088-4.6612-1.5132zm-17.02 6.2536c-2.1767 2.3919-3.074 5.6638-5.4475 7.9019-2.9453-1.2851-5.9088-2.5214-8.8603-3.7758-2.0968-0.95921-4.3288-1.9244-5.7492-3.8244 0.12298 0.41812 0.36882 1.2608 0.49179 1.6789 6.3518 3.4126 12.974 6.3264 19.713 8.872 0.78705-1.3282 1.599-2.6435 2.4229-3.9532 0.77476-1.2482 1.4018-2.5825 1.9798-3.9352-1.9676-0.0615-3.8925-1.0089-4.5504-2.9642zm11.111 30.228c-2.5149 5.534-6.9172 9.9309-10.951 14.389-7.6984 8.6514-17.469 15.23-27.836 20.266-9.5738 4.8145-20.137 7.4156-30.775 8.3748-10.687 1.1621-21.497 0.068-31.9-2.5022-10.705-3.0375-21.201-7.3544-30.129-14.1-7.0281-5.1527-13.736-10.859-19.049-17.813-1.3097-1.8078-2.9396-3.4307-3.8127-5.5213 9.4077 9.0634 19.412 17.967 31.457 23.372 6.3764 3.2896 13.208 5.5776 20.058 7.6497 10.115 2.3366 20.562 3.5411 30.941 2.7418 11.148-0.40583 22.031-3.4121 32.349-7.5011 5.8045-2.2874 11.338-5.2514 16.485-8.7747 5.9767-4.1259 11.941-8.4173 16.811-13.853 2.1951-2.1706 4.046-4.6737 6.3518-6.7274z" fill="#591a29" stroke-width=".61488"/>
<g transform="matrix(.61488 0 0 .61488 -237.71 -84.191)">
<path d="m915.76 320.8 21.67-37.66 9.3802 41.304c1.7089 7.5248 4.439 24.689 0.1293 22.659l-7.448-3.5086c-13.856 27.057-34.047 54.555-41.26 61.611-11.16 11.44-20.78 24.24-30.2 37.1 0.43-8.66 0.0716-17.043-2.8747-25.34 1.1019-2.9014 2.9902-5.9686 4.3176-8.8511 3.41-6.51 6.9818-14.013 10.373-20.484 3.62-7.14 28.958-56.416 35.913-66.83z" fill="url(#f)"/>
</g>
<g transform="matrix(.61488 0 0 .61488 -237.71 -84.191)">
<path d="m650.77 322.23c1.65 4.8 5.5007 8.6797 6.4307 13.72-0.87 3.44-2.9312 6.4199-4.7812 9.3999-5.23 7.66-8.9997 16.18-14.24 23.83-1.05 1.85-3.0597 4.03-1.6597 6.23 3.89 7.29 8.6205 14.1 12.771 21.25 0.69 1.43 1.7996 3.0292 1.1396 4.6992-1.41 4.08-3.3905 7.9398-4.7505 12.05 1.23 1.53 2.5609 3.011 3.9009 4.481 4.39-4.76 9.0789-9.2311 13.629-13.831 5.49-4.54 10.291-9.8288 15.101-15.069 0.23-0.27 0.68992-0.80054 0.91992-1.0605-0.73-0.81-1.4308-1.6207-2.1108-2.4507-4.77-0.64-8.1594 3.4109-11.689 5.9209-3.35 2.79-8.6698 4.429-12.51 1.689-1.96-1.76-2.9207-4.3995-3.2007-6.9595-1.09-12.9 2.4304-26.02 9.6504-36.75 2.32-4.46 6.4303-7.5403 9.3003-11.55 1.5-4.36 2.129-8.9998 3.999-13.26-7.25-1.13-14.539-2.3094-21.899-2.3394zm-43.447 7.437c-1.7069 0.0115-3.4744 0.96318-5.0625 1.5132-14.64 6.3-28.51 14.83-39.79 26.19-5.87 6.53-11.661 13.21-16.431 20.6-11.26 18.31-17.949 39.549-18.549 61.069 0.17 1.91-0.57041 4.8606 1.8296 5.6206 3.56 1.54 7.1904 2.949 10.86 4.229 1.66 0.86 3.1402-0.45951 4.5102-1.2495 4.55-3.08 9.0893-6.1896 13.759-9.0996 1.81-1.01 4.1008-2.6506 6.0908-1.0606 5.8 3.52 10.829 8.1302 16.419 11.95 7.27-3.77 14.29-8.0095 21.45-11.98 4.34-2.95 9.1904 1.2592 13.92 0.4292-11.87-12.19-23.921-24.199-36.081-36.089-3.05-3.14-6.8299-6.2404-7.4399-10.86-0.99-4.45 1.19-8.7997 4.21-11.93 2.75-2.91 5.4804-5.8811 8.6104-8.4111 5.1-4.1 13.29-3.8595 17.82 1.0005 12.4 12 24.32 24.479 36.76 36.439-0.03 0.51-0.10037 1.5305-0.13037 2.0405 1.1-3.62 2.3002-7.2896 2.2602-11.12-1.34-2.34-3.8396-3.7102-5.6396-5.6602-4.76-4.91-9.3-10.06-14.54-14.47-0.98-1.09-2.8707-2.0798-2.4507-3.7998 2.09-11.38 4.7003-22.67 6.7603-34.05-5.6-3.57-11.079-7.3599-16.879-10.61-0.72812-0.50937-1.4917-0.69808-2.2676-0.69287zm0.10987 114.07c-1.2404-0.0328-2.3821 0.62228-3.4321 1.2173-7.63 4.76-15.44 9.2109-23.09 13.941-5.88-3.95-11.081-8.7703-16.521-13.28-0.81-0.45-1.7092-1.7706-2.6792-0.89063-3.35 2.26-6.321 5.0408-9.501 7.5308-6.77 5.62-13.99 10.689-20.53 16.579-1.3 0.92-0.47908 2.5703-0.30908 3.8203 3.26 14.58 11.04 27.541 18.87 40.071 9.81 13.45 22.589 24.59 36.589 33.5 22.78 13.18 49.75 20.021 76.03 16.701-2.96-6.61-5.9496-13.221-9.0396-19.771-1.61-2.7 0.20983-5.5603 1.3198-8.0303 2.46-4.94 4.4904-10.07 6.7104-15.12-7.13-5.61-14.9-10.379-22.16-15.829-1.52-0.84-0.5901-2.5906-0.3501-3.8306 2.4-8.86 6.1708-17.37 7.5908-26.48-13.12 12.9-26.191 25.851-39.151 38.911-3.61 3.45-7.2905 7.9799-12.771 7.8999-5.57 0.56-10.169-3.1706-13.879-6.8306-4.11-3.98-8.8704-8.6091-8.4404-14.849 0.23-6.64 6.2298-10.55 10.32-14.96 12.33-12.67 25.171-24.84 37.321-37.68-4.03-1.21-8.1604-2.1605-12.36-2.5605-0.18125-0.035-0.36039-0.0524-0.53759-0.0571zm-79.333 9.4175c0.02 3.36 0.36984 6.7105 1.0898 10 2.46-2.2 4.9712-4.3708 6.9712-7.0108-2.64-1.12-5.331-2.1097-8.061-2.9897zm179.32 0.40137 1e-3 1e-3c-0.81625-0.02-1.623 0.25244-2.228 0.87744-4.85 4.03-9.5398 8.33-14.99 11.54-2.89 1.68-6.2901 1.7503-9.3501 0.53027 0.31 0.45 0.929 1.3503 1.229 1.8003 2.34 0.29 4.8298 0.55996 7.0898-0.29004 2.32-1.03 4.3002-2.7208 6.7002-3.6108 3.56 1.58 5.6005 5.2102 8.5005 7.6802 4.93 4.55 9.65 9.3307 14.54 13.931l5.2778 21.211c-0.0264 0.051-0.0525 0.1018-0.0776 0.15234-5.1605 5.7298-10.552 13.653-19.15 13.336-6.07 0.26-10.141-4.8097-14.001-8.6997-12.29-12.29-24.63-24.53-37.02-36.71-2.19 6.74-3.3897 13.741-4.9497 20.641-0.18 1.73-1.4208 4.2098 0.65918 5.2998 6.55 4.39 12.51 9.5602 18.7 14.43 1.31 0.87 1.9197 2.4995 1.1997 3.9595-2.67 6.74-6.569 12.91-9.419 19.57-0.87 1.55 0.47895 3.0499 1.169 4.3799 3.05 4.72 6.111 9.4397 8.751 14.41 0.84 1.22 1.4101 2.87 2.8901 3.46 4.21-0.45 8.1695-2.08 12.209-3.29 8.02-2.49 16.031-5.3095 23.221-9.7295 9.95-6.12 20.109-12.35 27.939-21.17 2.1656-2.4735 4.2353-4.7396 6.5376-7.396l1e-3 1e-3h2e-3l1e-3 1e-3c4.2609-5.5772 5.8757-7.5762 7.8896-10.318 3.1358-4.474 5.352-8.729 8.2954-12.851 0.67-2.61-0.9592-5.0999-1.1792-7.6699-0.55-3.96-1.1136-7.5242-1.0811-11.98 0.79-3.51 0.82006-7.1207 0.81006-10.701-4.9 0.17-9.6991 1.7899-14.619 1.1499-5.71-0.85-11.551-1.2895-16.941-3.4995-5.99-2.16-11.239-5.8298-16.329-9.5698-0.64-0.545-1.466-0.85744-2.2822-0.87744z" fill="url(#h)"/>
<path d="m766.78 556.81c3.57-3.53 6.58-7.6 10.33-10.94-4.09 9-11.25 16.15-17.81 23.4-12.52 14.07-28.41 24.77-45.27 32.96-15.57 7.83-32.75 12.06-50.05 13.62-17.38 1.89-34.96 0.11-51.88-4.07-17.41-4.94-34.48-11.96-49-22.93-11.43-8.38-22.34-17.66-30.98-28.97-2.13-2.94-4.78-5.58-6.2-8.98 15.3 14.74 31.57 29.22 51.16 38.01 10.37 5.35 21.48 9.07 32.62 12.44 16.45 3.8 33.44 5.76 50.32 4.46 18.13-0.66 35.83-5.55 52.61-12.2 9.44-3.72 18.44-8.54 26.81-14.27 9.72-6.71 19.42-13.69 27.34-22.53z" fill="#732432"/>
<path d="m593.53 367.72c-2.8489 0.1089-5.6716 1.0715-7.9028 2.8652-3.13 2.53-5.8604 5.5011-8.6104 8.4111-3.02 3.13-5.2 7.4797-4.21 11.93 0.61 4.62 4.3899 7.7204 7.4399 10.86 12.16 11.89 24.211 23.899 36.081 36.089 2.23 2.02 4.4906 4.0204 6.6606 6.1304-0.57 0.61-1.7313 1.8392-2.3013 2.4492l-0.35888-0.0996c-12.15 12.84-24.991 25.01-37.321 37.68-4.09 4.41-10.09 8.3204-10.32 14.96-0.43 6.24 4.3304 10.869 8.4404 14.849 3.71 3.66 8.3094 7.3906 13.879 6.8306 5.48 0.08 9.1605-4.4499 12.771-7.8999 12.96-13.06 26.031-26.011 39.151-38.911 0.85-0.91 1.6898-1.85 2.5298-2.77 1.53 1.35 3.0395 2.74 4.4795 4.21 12.39 12.18 24.73 24.42 37.02 36.71 3.86 3.89 7.931 8.9597 14.001 8.6997 8.67 0.32 14.08-7.7395 19.28-13.48 0.06-0.32 0.78522-0.98078 0.84522-1.3008-7.48-5.21-15.196-10.899-21.876-17.089-1.28-1.05-1.9898-2.5312-2.5298-4.0312 1.92 0.31 3.76 1.0312 5.31 2.2412 6.75 4.81 13.601 9.1064 21.031 12.776 0.0109-0.62141-0.10762-1.6755-0.30762-2.3555-1.16-4.49-4.4832-8.3709-7.8032-11.461-4.89-4.6-9.61-9.3807-14.54-13.931-3.99 2.18-7.9007 4.5503-12.201 6.0703-2.93 1.03-6.7492 1.2096-8.9092-1.4004-2.08-2.72-2.5607-6.2493-2.9707-9.5493l-0.15967-1.5703c-2.79-3.2-3.3301-7.5498-3.8101-11.59-0.93-9.97 1.2896-19.93 4.5396-29.3 0.17816-0.55053 0.38646-1.0882 0.61523-1.6157-0.46403-0.18971-0.92529-0.39597-1.352-0.6167-4e-3 7e-3 -9e-3 0.0145-0.0132 0.022-0.91-4.92-1.0197-9.9401-1.7197-14.89-0.19-2.35-1.8799-4.7394-4.3799-4.8794-3.64-0.01-7.2103 0.83906-10.8 1.2891-4.55 4.6-9.2389 9.071-13.629 13.831-1.34-1.47-2.6709-2.951-3.9009-4.481-2.38 6.32-5.8104 12.22-7.9204 18.64 0.27 3.1 1.3611 6.0606 2.1211 9.0806-1.64-2.52-3.3607-4.9803-5.2207-7.3403 2.09-7.84 3.3799-15.87 5.4199-23.72 0.03-0.51 0.10037-1.5305 0.13037-2.0405-12.44-11.96-24.36-24.439-36.76-36.439-2.5481-2.7338-6.2541-4.0057-9.917-3.8657z" fill="url(#g)"/>
</g>
<g transform="matrix(.61488 0 0 .61488 -237.71 -84.191)" stroke-width="0">
<path d="m694.32 461.22-14.662 3.7617 0.62842 2.2266c0.41 3.3 0.8907 6.8293 2.9707 9.5493 2.16 2.61 5.9792 2.4304 8.9092 1.4004 4.3-1.52 8.2107-3.8903 12.201-6.0703z" fill="#aa6478"/>
<path d="m679.23 387.93c-0.22996 0.25995-0.68988 0.7905-0.91992 1.0605l-15.101 15.069c3.59-0.45 7.2597-1.1996 10.9-1.1896 2.5 0.14 3.6927 2.5957 4.181 4.8462 0.7 4.95-0.40919 8.0757 1.8368 14.929 0.50056 1.2092 0.98988 1.9805 1.8614 2.7763 1.1965-2.7591 3.4336-7.7487 4.3654-10.611l1.0605-20.209-8.1838-6.6712z" fill="#b4798e"/>
</g>
<g transform="matrix(.61488 0 0 .61488 -237.71 -84.191)">
<path d="m851.08 177.02c1.61-4.91 9.27-3.79 10.28 0.99 0.26 3.14-1.5 5.89-2.61 8.69-13.38 30.74-31.03 60.38-56.16 82.97-12.61 11.18-27.18 20.86-43.73 24.92-4.55 1.2-9.21 1.94-13.82 2.87-12.43 0.41-25.36 1.2-36.63 6.99-11.3 5.21-21.01 14.23-25.87 25.81 3.66-1.31 7.53-2.17 11.45-1.83 2.38 0.96 4.96 2.07 6.14 4.53 3.62 6.49 2.51 14.36 1.26 21.36-2.02 9.31-5.28 19.73-14.5 24.26 0.99 1.38 1.94 2.8 3.04 4.12 5-9.71 11.5-18.88 20.35-25.46 11.36-8.53 25.08-13.7 39.24-14.83 2.96 0.13 6.0301-0.0833 8.97 1.46-0.84 1.48-1.68 2.95-2.48 4.45-16.65 4.48-33.93 10.71-45.77 23.87-7.77 8.07-13.06 18.67-13.65 29.96 3.43-2.81 6.94-5.55 10.79-7.79 5.13-2.67 11.04-5.03 16.91-3.74 5.84 1.38 8.2 7.8 9.07 13.09 0.86 7.11 0.14 14.35-1.09 21.38-1 5.1-2.16 10.46-5.49 14.61-2.38 3-5.85 4.76-9.12 6.6 12.51 10.27 30.34 12.37 45.37 6.9-1.58-8.03-0.23-16.21 1.66-24.05 4.93-16.45 16.75-30.54 31.51-39.16 5.01-2.4 10.13-5.17 15.75-5.68 2.11-0.28 2.64 2.17 3.56 3.54-3.07 1.34-5.71 3.43-8.41 5.37-8.65 5.8-16.34 13.01-22.71 21.24-5.84 7.36-9.68 16.25-10.89 25.58 3.32-3.69 7.1-7.01 11.48-9.4 3.67-1.79 7.99-3.31 12.02-1.73 4.14 1.3 6.72 5.25 7.84 9.25 1.78 6.34 2.19 13.01 1.81 19.56-0.43 4.96-0.99 10.08-3.45 14.51-1.42 2.75-3.9 4.68-6.21 6.65 11.8 4.83 25.3 2.86 36.64-2.3 15.16-6.81 26.37-20.09 34.4-34.27 9.42-12.86 19.04-25.66 30.2-37.1 9.68-10.88 18.01-22.88 25.73-35.22 5.44-8.4 14.589-29.178 24.14-38.675 0.69187 3.0654 1.3136 4.4514 1.3678 10.491 0.10703 1.8933-0.46821 4.3542-1.7882 8.1842-2.16 5.96-5.86 11.23-8.9 16.76-7.25 12.76-15.57 24.87-24.52 36.49-10.01 13.01-22.37 24.08-31.47 37.81-8.63 12.66-16.67 26.15-28.87 35.77-12.04 10.36-26.956 16.474-42.816 16.034-5.138-0.0797-7.1133-0.0416-15.284-1.9861-1.8397-0.74593-4.4907-1.8895-8.3282-3.5345-2.135 1.523-4.0907 3.0803-6.9981 5.5675-3.71 4.14-8.4544 7.5491-14.054 8.6291-3.2-0.1-6.33-1.64-7.4-4.82-0.73195-2.7812-1.3587-5.626-1.8831-8.5372-0.55-3.96-0.69064-7.8294-0.5175-12.191 0.2275-3.7444 0.6325-6.0419 0.95062-9.6219-4.9 0.17-9.7 1.79-14.62 1.15-5.71-0.85-11.55-1.29-16.94-3.5-5.99-2.16-11.24-5.83-16.33-9.57-1.28-1.09-3.3-1.25-4.51 0-4.85 4.03-9.54 8.33-14.99 11.54-2.89 1.68-6.29 1.75-9.35 0.53-0.18-0.21-0.54-0.65-0.72-0.87-2.79-3.2-3.33-7.55-3.81-11.59-0.93-9.97 1.29-19.93 4.54-29.3 1.11-3.43 3.39-6.33 4.5-9.74-0.01-6.74-0.5-13.57 1.06-20.21-2.34-2.35-4.92-4.46-7.19-6.87-0.73-0.81-1.43-1.62-2.11-2.45-4.77-0.64-8.16 3.41-11.69 5.92-3.35 2.79-8.67 4.43-12.51 1.69-1.96-1.76-2.92-4.4-3.2-6.96-1.09-12.9 2.43-26.02 9.65-36.75 2.32-4.46 6.43-7.54 9.3-11.55 1.5-4.36 2.13-9 4-13.26 1.33-3.14 3.02-6.12 4.98-8.91 0.35-0.49 0.72-0.97 1.11-1.43 4.0865-5.1265 6.8808-8.1129 10.783-11.701 5.0065-4.0882 11.982-8.3957 19.443-10.92 16.49-6.68 35.503-3.1291 52.143-9.1591 18.48-5.75 33.54-18.87 46.2-33.07 19.21-20.95 32.6-46.42 43.75-72.36m-164.09 161.56c-7.65 3.24-13.82 9.17-18.58 15.87-5.72 7.86-7.69 17.77-7.85 27.32l1.0883-0.75969 1.0317-0.65031c5.61-3.95 11.75-7.11 18.19-9.49 2.69-1.01 5.56-2.41 6.88-5.14 2.08-4.04 3.31-8.46 4.43-12.85 1.2-4.52 1.49-9.28 0.94-13.91-1.2-2.39-4.27-1.05-6.13-0.39m22.2 65.62c-16.01 10.64-24.15 31-21.98 49.81l0.0819 0.88813c7.08-3.74 11.858-9.8581 19.028-13.528 4.62-3.04 10.76-4.22 14.06-8.97 2.54-5.78 3.32-12.16 4-18.38 0.2-4.69 0.72-9.76-1.57-14.06-4.88-1.39-9.68 1.64-13.62 4.24m77.98 35.85c-9.72 6.23-14.83 17.38-18.02 28.08-1.76 7.12-2.1538 14.278-0.39375 21.418 0.32489-0.28413 0.57547-0.49235 0.92883-0.83305 3.4598-2.7416 6.7149-5.9748 10.235-8.8348 4.22-3.87 9.2-6.75 13.85-10.04 3.06-2.24 3.22-6.32 3.68-9.75 0.33-5.02 0.77-10.14-0.14-15.13-0.6-2.71-0.82-6.2-3.39-7.84-2.5-0.09-4.91 1.34-6.75 2.93z" fill="#4d3a45"/>
</g>
<g transform="matrix(.61488 0 0 .61488 -237.71 -84.191)">
<path d="m700.68 484.82c1.92 0.31 3.76 1.03 5.31 2.24 6.75 4.81 13.601 9.0828 21.031 12.753 10.33 5.55 21.299 10.407 32.259 14.547 7.28 2.61 14.72 4.8 22.19 6.8 6.29 1.64 12.72 2.66 19.11 3.84 8.36 1.63 16.91 1.68 25.4 1.64 2.21-0.02 4.41-0.04 6.63-0.09 12.99 0.07 25.79-2.51 38.48-4.86 9.41-2.79 18.295-6.2837 27.365-10.014 2.5912-0.96517 4.2997-1.3578 7.3485-1.9879-11.33 8.71-27.263 16.242-40.533 21.092-11.3 3.97-23.26 5.32-35.06 6.67-3.34-0.04-6.67-0.02-9.99 0.12-3.8909-0.0383-6.1071-0.0593-10.087-0.38709-4.6657-0.27774-9.2821-1.0424-12.705-1.6236l-1.4679-0.19934c-6.36-1.44-12.73-2.83-19.01-4.55-8.04-2.02-15.67-5.32-23.26-8.58-10.15-4.63-20.13-9.75-29.19-16.29-7.48-5.21-14.61-10.9-21.29-17.09-1.28-1.05-1.99-2.53-2.53-4.03z" fill="#d6a0ad"/>
</g>
</svg>
